<mxfile host="65bd71144e">
    <diagram id="CRfchKrHQma1XfHpWbwd" name="Page-1">
        <mxGraphModel dx="2934" dy="1416" grid="1" gridSize="10" guides="1" tooltips="1" connect="1" arrows="1" fold="1" page="1" pageScale="1" pageWidth="850" pageHeight="1100" math="0" shadow="0">
            <root>
                <mxCell id="0"/>
                <mxCell id="1" parent="0"/>
                <mxCell id="258" value="" style="whiteSpace=wrap;html=1;dashed=1;" vertex="1" parent="1">
                    <mxGeometry x="140" y="400" width="480" height="310" as="geometry"/>
                </mxCell>
                <mxCell id="259" value="Sort Block for n=4" style="whiteSpace=wrap;html=1;fillColor=#e1d5e7;strokeColor=#9673a6;" vertex="1" parent="1">
                    <mxGeometry x="320" y="670" width="120" height="40" as="geometry"/>
                </mxCell>
                <mxCell id="254" value="" style="whiteSpace=wrap;html=1;dashed=1;" vertex="1" parent="1">
                    <mxGeometry x="690" y="50" width="570" height="670" as="geometry"/>
                </mxCell>
                <mxCell id="29" value="" style="group" vertex="1" connectable="0" parent="1">
                    <mxGeometry x="-40" y="80" width="130" height="40" as="geometry"/>
                </mxCell>
                <mxCell id="27" value="&lt;font style=&quot;font-size: 20px;&quot;&gt;X_0&lt;/font&gt;" style="whiteSpace=wrap;html=1;fillColor=#dae8fc;strokeColor=#6c8ebf;" vertex="1" parent="29">
                    <mxGeometry width="120" height="40" as="geometry"/>
                </mxCell>
                <mxCell id="28" value="" style="shape=waypoint;sketch=0;size=6;pointerEvents=1;points=[];fillColor=#dae8fc;resizable=0;rotatable=0;perimeter=centerPerimeter;snapToPoint=1;strokeColor=#6c8ebf;container=1;" vertex="1" parent="29">
                    <mxGeometry x="110" y="10" width="20" height="20" as="geometry"/>
                </mxCell>
                <mxCell id="256" value="" style="whiteSpace=wrap;html=1;dashed=1;" vertex="1" parent="1">
                    <mxGeometry x="140" y="50" width="480" height="310" as="geometry"/>
                </mxCell>
                <mxCell id="7" value="" style="group" vertex="1" connectable="0" parent="1">
                    <mxGeometry x="150" y="100" width="100" height="80" as="geometry"/>
                </mxCell>
                <mxCell id="2" value="&lt;font style=&quot;font-size: 20px;&quot;&gt;BN&lt;/font&gt;" style="whiteSpace=wrap;html=1;fillColor=#ffe6cc;strokeColor=#d79b00;" vertex="1" parent="7">
                    <mxGeometry x="10" width="80" height="80" as="geometry"/>
                </mxCell>
                <mxCell id="3" value="" style="shape=waypoint;sketch=0;size=6;pointerEvents=1;points=[];fillColor=#fff2cc;resizable=0;rotatable=0;perimeter=centerPerimeter;snapToPoint=1;strokeColor=#d6b656;" vertex="1" parent="7">
                    <mxGeometry y="10" width="20" height="20" as="geometry"/>
                </mxCell>
                <mxCell id="4" value="" style="shape=waypoint;sketch=0;size=6;pointerEvents=1;points=[];fillColor=#fff2cc;resizable=0;rotatable=0;perimeter=centerPerimeter;snapToPoint=1;strokeColor=#d6b656;" vertex="1" parent="7">
                    <mxGeometry y="50" width="20" height="20" as="geometry"/>
                </mxCell>
                <mxCell id="5" value="" style="shape=waypoint;sketch=0;size=6;pointerEvents=1;points=[];fillColor=#fff2cc;resizable=0;rotatable=0;perimeter=centerPerimeter;snapToPoint=1;strokeColor=#d6b656;" vertex="1" parent="7">
                    <mxGeometry x="80" y="50" width="20" height="20" as="geometry"/>
                </mxCell>
                <mxCell id="6" value="" style="shape=waypoint;sketch=0;size=6;pointerEvents=1;points=[];fillColor=#fff2cc;resizable=0;rotatable=0;perimeter=centerPerimeter;snapToPoint=1;strokeColor=#d6b656;" vertex="1" parent="7">
                    <mxGeometry x="80" y="10" width="20" height="20" as="geometry"/>
                </mxCell>
                <mxCell id="9" value="" style="group" vertex="1" connectable="0" parent="1">
                    <mxGeometry x="150" y="260" width="100" height="80" as="geometry"/>
                </mxCell>
                <mxCell id="10" value="&lt;font style=&quot;font-size: 20px;&quot;&gt;BN&lt;/font&gt;" style="whiteSpace=wrap;html=1;fillColor=#ffe6cc;strokeColor=#d79b00;" vertex="1" parent="9">
                    <mxGeometry x="10" width="80" height="80" as="geometry"/>
                </mxCell>
                <mxCell id="11" value="" style="shape=waypoint;sketch=0;size=6;pointerEvents=1;points=[];fillColor=#fff2cc;resizable=0;rotatable=0;perimeter=centerPerimeter;snapToPoint=1;strokeColor=#d6b656;" vertex="1" parent="9">
                    <mxGeometry y="10" width="20" height="20" as="geometry"/>
                </mxCell>
                <mxCell id="12" value="" style="shape=waypoint;sketch=0;size=6;pointerEvents=1;points=[];fillColor=#fff2cc;resizable=0;rotatable=0;perimeter=centerPerimeter;snapToPoint=1;strokeColor=#d6b656;" vertex="1" parent="9">
                    <mxGeometry y="50" width="20" height="20" as="geometry"/>
                </mxCell>
                <mxCell id="13" value="" style="shape=waypoint;sketch=0;size=6;pointerEvents=1;points=[];fillColor=#fff2cc;resizable=0;rotatable=0;perimeter=centerPerimeter;snapToPoint=1;strokeColor=#d6b656;" vertex="1" parent="9">
                    <mxGeometry x="80" y="50" width="20" height="20" as="geometry"/>
                </mxCell>
                <mxCell id="14" value="" style="shape=waypoint;sketch=0;size=6;pointerEvents=1;points=[];fillColor=#fff2cc;resizable=0;rotatable=0;perimeter=centerPerimeter;snapToPoint=1;strokeColor=#d6b656;" vertex="1" parent="9">
                    <mxGeometry x="80" y="10" width="20" height="20" as="geometry"/>
                </mxCell>
                <mxCell id="30" value="" style="group" vertex="1" connectable="0" parent="1">
                    <mxGeometry x="-40" y="160" width="130" height="40" as="geometry"/>
                </mxCell>
                <mxCell id="31" value="&lt;font style=&quot;font-size: 20px;&quot;&gt;X_1&lt;/font&gt;" style="whiteSpace=wrap;html=1;fillColor=#dae8fc;strokeColor=#6c8ebf;" vertex="1" parent="30">
                    <mxGeometry width="120" height="40" as="geometry"/>
                </mxCell>
                <mxCell id="32" value="" style="shape=waypoint;sketch=0;size=6;pointerEvents=1;points=[];fillColor=#dae8fc;resizable=0;rotatable=0;perimeter=centerPerimeter;snapToPoint=1;strokeColor=#6c8ebf;container=1;" vertex="1" parent="30">
                    <mxGeometry x="110" y="10" width="20" height="20" as="geometry"/>
                </mxCell>
                <mxCell id="33" value="" style="group" vertex="1" connectable="0" parent="1">
                    <mxGeometry x="-40" y="240" width="130" height="40" as="geometry"/>
                </mxCell>
                <mxCell id="34" value="&lt;font style=&quot;font-size: 20px;&quot;&gt;X_2&lt;/font&gt;" style="whiteSpace=wrap;html=1;fillColor=#dae8fc;strokeColor=#6c8ebf;" vertex="1" parent="33">
                    <mxGeometry width="120" height="40" as="geometry"/>
                </mxCell>
                <mxCell id="35" value="" style="shape=waypoint;sketch=0;size=6;pointerEvents=1;points=[];fillColor=#dae8fc;resizable=0;rotatable=0;perimeter=centerPerimeter;snapToPoint=1;strokeColor=#6c8ebf;container=1;" vertex="1" parent="33">
                    <mxGeometry x="110" y="10" width="20" height="20" as="geometry"/>
                </mxCell>
                <mxCell id="36" value="" style="group" vertex="1" connectable="0" parent="1">
                    <mxGeometry x="-40" y="320" width="130" height="40" as="geometry"/>
                </mxCell>
                <mxCell id="37" value="&lt;font style=&quot;font-size: 20px;&quot;&gt;X_3&lt;/font&gt;" style="whiteSpace=wrap;html=1;fillColor=#dae8fc;strokeColor=#6c8ebf;" vertex="1" parent="36">
                    <mxGeometry width="120" height="40" as="geometry"/>
                </mxCell>
                <mxCell id="38" value="" style="shape=waypoint;sketch=0;size=6;pointerEvents=1;points=[];fillColor=#dae8fc;resizable=0;rotatable=0;perimeter=centerPerimeter;snapToPoint=1;strokeColor=#6c8ebf;container=1;" vertex="1" parent="36">
                    <mxGeometry x="110" y="10" width="20" height="20" as="geometry"/>
                </mxCell>
                <mxCell id="57" value="" style="edgeStyle=none;html=1;" edge="1" parent="1" source="35" target="11">
                    <mxGeometry relative="1" as="geometry">
                        <Array as="points">
                            <mxPoint x="120" y="260"/>
                            <mxPoint x="120" y="280"/>
                        </Array>
                    </mxGeometry>
                </mxCell>
                <mxCell id="58" value="" style="edgeStyle=none;html=1;" edge="1" parent="1" source="38" target="12">
                    <mxGeometry relative="1" as="geometry">
                        <Array as="points">
                            <mxPoint x="120" y="340"/>
                            <mxPoint x="120" y="320"/>
                        </Array>
                    </mxGeometry>
                </mxCell>
                <mxCell id="59" value="" style="edgeStyle=none;html=1;" edge="1" parent="1" source="32" target="4">
                    <mxGeometry relative="1" as="geometry">
                        <Array as="points">
                            <mxPoint x="120" y="180"/>
                            <mxPoint x="120" y="160"/>
                        </Array>
                    </mxGeometry>
                </mxCell>
                <mxCell id="60" value="" style="edgeStyle=none;html=1;" edge="1" parent="1" source="28" target="3">
                    <mxGeometry relative="1" as="geometry">
                        <Array as="points">
                            <mxPoint x="120" y="100"/>
                            <mxPoint x="120" y="120"/>
                        </Array>
                    </mxGeometry>
                </mxCell>
                <mxCell id="61" value="" style="group" vertex="1" connectable="0" parent="1">
                    <mxGeometry x="350" y="100" width="100" height="80" as="geometry"/>
                </mxCell>
                <mxCell id="62" value="&lt;font style=&quot;font-size: 20px;&quot;&gt;BN&lt;/font&gt;" style="whiteSpace=wrap;html=1;fillColor=#ffe6cc;strokeColor=#d79b00;" vertex="1" parent="61">
                    <mxGeometry x="10" width="80" height="80" as="geometry"/>
                </mxCell>
                <mxCell id="63" value="" style="shape=waypoint;sketch=0;size=6;pointerEvents=1;points=[];fillColor=#fff2cc;resizable=0;rotatable=0;perimeter=centerPerimeter;snapToPoint=1;strokeColor=#d6b656;" vertex="1" parent="61">
                    <mxGeometry y="10" width="20" height="20" as="geometry"/>
                </mxCell>
                <mxCell id="64" value="" style="shape=waypoint;sketch=0;size=6;pointerEvents=1;points=[];fillColor=#fff2cc;resizable=0;rotatable=0;perimeter=centerPerimeter;snapToPoint=1;strokeColor=#d6b656;" vertex="1" parent="61">
                    <mxGeometry y="50" width="20" height="20" as="geometry"/>
                </mxCell>
                <mxCell id="65" value="" style="shape=waypoint;sketch=0;size=6;pointerEvents=1;points=[];fillColor=#fff2cc;resizable=0;rotatable=0;perimeter=centerPerimeter;snapToPoint=1;strokeColor=#d6b656;" vertex="1" parent="61">
                    <mxGeometry x="80" y="50" width="20" height="20" as="geometry"/>
                </mxCell>
                <mxCell id="66" value="" style="shape=waypoint;sketch=0;size=6;pointerEvents=1;points=[];fillColor=#fff2cc;resizable=0;rotatable=0;perimeter=centerPerimeter;snapToPoint=1;strokeColor=#d6b656;" vertex="1" parent="61">
                    <mxGeometry x="80" y="10" width="20" height="20" as="geometry"/>
                </mxCell>
                <mxCell id="67" value="" style="group" vertex="1" connectable="0" parent="1">
                    <mxGeometry x="350" y="260" width="100" height="80" as="geometry"/>
                </mxCell>
                <mxCell id="68" value="&lt;font style=&quot;font-size: 20px;&quot;&gt;BN&lt;/font&gt;" style="whiteSpace=wrap;html=1;fillColor=#ffe6cc;strokeColor=#d79b00;" vertex="1" parent="67">
                    <mxGeometry x="10" width="80" height="80" as="geometry"/>
                </mxCell>
                <mxCell id="69" value="" style="shape=waypoint;sketch=0;size=6;pointerEvents=1;points=[];fillColor=#fff2cc;resizable=0;rotatable=0;perimeter=centerPerimeter;snapToPoint=1;strokeColor=#d6b656;" vertex="1" parent="67">
                    <mxGeometry y="10" width="20" height="20" as="geometry"/>
                </mxCell>
                <mxCell id="70" value="" style="shape=waypoint;sketch=0;size=6;pointerEvents=1;points=[];fillColor=#fff2cc;resizable=0;rotatable=0;perimeter=centerPerimeter;snapToPoint=1;strokeColor=#d6b656;" vertex="1" parent="67">
                    <mxGeometry y="50" width="20" height="20" as="geometry"/>
                </mxCell>
                <mxCell id="71" value="" style="shape=waypoint;sketch=0;size=6;pointerEvents=1;points=[];fillColor=#fff2cc;resizable=0;rotatable=0;perimeter=centerPerimeter;snapToPoint=1;strokeColor=#d6b656;" vertex="1" parent="67">
                    <mxGeometry x="80" y="50" width="20" height="20" as="geometry"/>
                </mxCell>
                <mxCell id="72" value="" style="shape=waypoint;sketch=0;size=6;pointerEvents=1;points=[];fillColor=#fff2cc;resizable=0;rotatable=0;perimeter=centerPerimeter;snapToPoint=1;strokeColor=#d6b656;" vertex="1" parent="67">
                    <mxGeometry x="80" y="10" width="20" height="20" as="geometry"/>
                </mxCell>
                <mxCell id="73" value="" style="edgeStyle=none;html=1;entryX=0.193;entryY=0.536;entryDx=0;entryDy=0;entryPerimeter=0;" edge="1" parent="1" source="6" target="63">
                    <mxGeometry relative="1" as="geometry"/>
                </mxCell>
                <mxCell id="74" value="" style="edgeStyle=none;html=1;entryX=0.364;entryY=0.307;entryDx=0;entryDy=0;entryPerimeter=0;" edge="1" parent="1" source="5" target="69">
                    <mxGeometry relative="1" as="geometry">
                        <Array as="points">
                            <mxPoint x="280" y="160"/>
                            <mxPoint x="320" y="280"/>
                        </Array>
                    </mxGeometry>
                </mxCell>
                <mxCell id="75" value="" style="edgeStyle=none;html=1;entryX=0.021;entryY=0.221;entryDx=0;entryDy=0;entryPerimeter=0;" edge="1" parent="1" source="14" target="64">
                    <mxGeometry relative="1" as="geometry">
                        <Array as="points">
                            <mxPoint x="280" y="280"/>
                            <mxPoint x="320" y="160"/>
                        </Array>
                    </mxGeometry>
                </mxCell>
                <mxCell id="76" value="" style="edgeStyle=none;html=1;" edge="1" parent="1" source="13" target="70">
                    <mxGeometry relative="1" as="geometry"/>
                </mxCell>
                <mxCell id="77" value="" style="group" vertex="1" connectable="0" parent="1">
                    <mxGeometry x="510" y="180" width="100" height="80" as="geometry"/>
                </mxCell>
                <mxCell id="78" value="&lt;font style=&quot;font-size: 20px;&quot;&gt;BN&lt;/font&gt;" style="whiteSpace=wrap;html=1;fillColor=#ffe6cc;strokeColor=#d79b00;" vertex="1" parent="77">
                    <mxGeometry x="10" width="80" height="80" as="geometry"/>
                </mxCell>
                <mxCell id="79" value="" style="shape=waypoint;sketch=0;size=6;pointerEvents=1;points=[];fillColor=#fff2cc;resizable=0;rotatable=0;perimeter=centerPerimeter;snapToPoint=1;strokeColor=#d6b656;" vertex="1" parent="77">
                    <mxGeometry y="10" width="20" height="20" as="geometry"/>
                </mxCell>
                <mxCell id="80" value="" style="shape=waypoint;sketch=0;size=6;pointerEvents=1;points=[];fillColor=#fff2cc;resizable=0;rotatable=0;perimeter=centerPerimeter;snapToPoint=1;strokeColor=#d6b656;" vertex="1" parent="77">
                    <mxGeometry y="50" width="20" height="20" as="geometry"/>
                </mxCell>
                <mxCell id="81" value="" style="shape=waypoint;sketch=0;size=6;pointerEvents=1;points=[];fillColor=#fff2cc;resizable=0;rotatable=0;perimeter=centerPerimeter;snapToPoint=1;strokeColor=#d6b656;" vertex="1" parent="77">
                    <mxGeometry x="80" y="50" width="20" height="20" as="geometry"/>
                </mxCell>
                <mxCell id="82" value="" style="shape=waypoint;sketch=0;size=6;pointerEvents=1;points=[];fillColor=#fff2cc;resizable=0;rotatable=0;perimeter=centerPerimeter;snapToPoint=1;strokeColor=#d6b656;" vertex="1" parent="77">
                    <mxGeometry x="80" y="10" width="20" height="20" as="geometry"/>
                </mxCell>
                <mxCell id="83" value="" style="edgeStyle=none;html=1;" edge="1" parent="1" source="65" target="79">
                    <mxGeometry relative="1" as="geometry">
                        <Array as="points">
                            <mxPoint x="480" y="160"/>
                            <mxPoint x="480" y="200"/>
                        </Array>
                    </mxGeometry>
                </mxCell>
                <mxCell id="84" value="" style="edgeStyle=none;html=1;" edge="1" parent="1" source="72" target="80">
                    <mxGeometry relative="1" as="geometry">
                        <Array as="points">
                            <mxPoint x="480" y="280"/>
                            <mxPoint x="480" y="240"/>
                        </Array>
                    </mxGeometry>
                </mxCell>
                <mxCell id="85" value="" style="group" vertex="1" connectable="0" parent="1">
                    <mxGeometry x="150" y="420" width="100" height="80" as="geometry"/>
                </mxCell>
                <mxCell id="86" value="&lt;font style=&quot;font-size: 20px;&quot;&gt;BN&lt;/font&gt;" style="whiteSpace=wrap;html=1;fillColor=#ffe6cc;strokeColor=#d79b00;" vertex="1" parent="85">
                    <mxGeometry x="10" width="80" height="80" as="geometry"/>
                </mxCell>
                <mxCell id="87" value="" style="shape=waypoint;sketch=0;size=6;pointerEvents=1;points=[];fillColor=#fff2cc;resizable=0;rotatable=0;perimeter=centerPerimeter;snapToPoint=1;strokeColor=#d6b656;" vertex="1" parent="85">
                    <mxGeometry y="10" width="20" height="20" as="geometry"/>
                </mxCell>
                <mxCell id="88" value="" style="shape=waypoint;sketch=0;size=6;pointerEvents=1;points=[];fillColor=#fff2cc;resizable=0;rotatable=0;perimeter=centerPerimeter;snapToPoint=1;strokeColor=#d6b656;" vertex="1" parent="85">
                    <mxGeometry y="50" width="20" height="20" as="geometry"/>
                </mxCell>
                <mxCell id="89" value="" style="shape=waypoint;sketch=0;size=6;pointerEvents=1;points=[];fillColor=#fff2cc;resizable=0;rotatable=0;perimeter=centerPerimeter;snapToPoint=1;strokeColor=#d6b656;" vertex="1" parent="85">
                    <mxGeometry x="80" y="50" width="20" height="20" as="geometry"/>
                </mxCell>
                <mxCell id="90" value="" style="shape=waypoint;sketch=0;size=6;pointerEvents=1;points=[];fillColor=#fff2cc;resizable=0;rotatable=0;perimeter=centerPerimeter;snapToPoint=1;strokeColor=#d6b656;" vertex="1" parent="85">
                    <mxGeometry x="80" y="10" width="20" height="20" as="geometry"/>
                </mxCell>
                <mxCell id="91" value="" style="group" vertex="1" connectable="0" parent="1">
                    <mxGeometry x="150" y="580" width="100" height="80" as="geometry"/>
                </mxCell>
                <mxCell id="92" value="&lt;font style=&quot;font-size: 20px;&quot;&gt;BN&lt;/font&gt;" style="whiteSpace=wrap;html=1;fillColor=#ffe6cc;strokeColor=#d79b00;" vertex="1" parent="91">
                    <mxGeometry x="10" width="80" height="80" as="geometry"/>
                </mxCell>
                <mxCell id="93" value="" style="shape=waypoint;sketch=0;size=6;pointerEvents=1;points=[];fillColor=#fff2cc;resizable=0;rotatable=0;perimeter=centerPerimeter;snapToPoint=1;strokeColor=#d6b656;" vertex="1" parent="91">
                    <mxGeometry y="10" width="20" height="20" as="geometry"/>
                </mxCell>
                <mxCell id="94" value="" style="shape=waypoint;sketch=0;size=6;pointerEvents=1;points=[];fillColor=#fff2cc;resizable=0;rotatable=0;perimeter=centerPerimeter;snapToPoint=1;strokeColor=#d6b656;" vertex="1" parent="91">
                    <mxGeometry y="50" width="20" height="20" as="geometry"/>
                </mxCell>
                <mxCell id="95" value="" style="shape=waypoint;sketch=0;size=6;pointerEvents=1;points=[];fillColor=#fff2cc;resizable=0;rotatable=0;perimeter=centerPerimeter;snapToPoint=1;strokeColor=#d6b656;" vertex="1" parent="91">
                    <mxGeometry x="80" y="50" width="20" height="20" as="geometry"/>
                </mxCell>
                <mxCell id="96" value="" style="shape=waypoint;sketch=0;size=6;pointerEvents=1;points=[];fillColor=#fff2cc;resizable=0;rotatable=0;perimeter=centerPerimeter;snapToPoint=1;strokeColor=#d6b656;" vertex="1" parent="91">
                    <mxGeometry x="80" y="10" width="20" height="20" as="geometry"/>
                </mxCell>
                <mxCell id="97" value="" style="group" vertex="1" connectable="0" parent="1">
                    <mxGeometry x="-40" y="400" width="130" height="40" as="geometry"/>
                </mxCell>
                <mxCell id="98" value="&lt;font style=&quot;font-size: 20px;&quot;&gt;X_4&lt;/font&gt;" style="whiteSpace=wrap;html=1;fillColor=#dae8fc;strokeColor=#6c8ebf;" vertex="1" parent="97">
                    <mxGeometry width="120" height="40" as="geometry"/>
                </mxCell>
                <mxCell id="99" value="" style="shape=waypoint;sketch=0;size=6;pointerEvents=1;points=[];fillColor=#dae8fc;resizable=0;rotatable=0;perimeter=centerPerimeter;snapToPoint=1;strokeColor=#6c8ebf;container=1;" vertex="1" parent="97">
                    <mxGeometry x="110" y="10" width="20" height="20" as="geometry"/>
                </mxCell>
                <mxCell id="100" value="" style="group" vertex="1" connectable="0" parent="1">
                    <mxGeometry x="-40" y="480" width="130" height="40" as="geometry"/>
                </mxCell>
                <mxCell id="101" value="&lt;font style=&quot;font-size: 20px;&quot;&gt;X_5&lt;/font&gt;" style="whiteSpace=wrap;html=1;fillColor=#dae8fc;strokeColor=#6c8ebf;" vertex="1" parent="100">
                    <mxGeometry width="120" height="40" as="geometry"/>
                </mxCell>
                <mxCell id="102" value="" style="shape=waypoint;sketch=0;size=6;pointerEvents=1;points=[];fillColor=#dae8fc;resizable=0;rotatable=0;perimeter=centerPerimeter;snapToPoint=1;strokeColor=#6c8ebf;container=1;" vertex="1" parent="100">
                    <mxGeometry x="110" y="10" width="20" height="20" as="geometry"/>
                </mxCell>
                <mxCell id="103" value="" style="group" vertex="1" connectable="0" parent="1">
                    <mxGeometry x="-40" y="560" width="130" height="40" as="geometry"/>
                </mxCell>
                <mxCell id="104" value="&lt;font style=&quot;font-size: 20px;&quot;&gt;X_6&lt;/font&gt;" style="whiteSpace=wrap;html=1;fillColor=#dae8fc;strokeColor=#6c8ebf;" vertex="1" parent="103">
                    <mxGeometry width="120" height="40" as="geometry"/>
                </mxCell>
                <mxCell id="105" value="" style="shape=waypoint;sketch=0;size=6;pointerEvents=1;points=[];fillColor=#dae8fc;resizable=0;rotatable=0;perimeter=centerPerimeter;snapToPoint=1;strokeColor=#6c8ebf;container=1;" vertex="1" parent="103">
                    <mxGeometry x="110" y="10" width="20" height="20" as="geometry"/>
                </mxCell>
                <mxCell id="106" value="" style="group" vertex="1" connectable="0" parent="1">
                    <mxGeometry x="-40" y="640" width="130" height="40" as="geometry"/>
                </mxCell>
                <mxCell id="107" value="&lt;font style=&quot;font-size: 20px;&quot;&gt;X_7&lt;/font&gt;" style="whiteSpace=wrap;html=1;fillColor=#dae8fc;strokeColor=#6c8ebf;" vertex="1" parent="106">
                    <mxGeometry width="120" height="40" as="geometry"/>
                </mxCell>
                <mxCell id="108" value="" style="shape=waypoint;sketch=0;size=6;pointerEvents=1;points=[];fillColor=#dae8fc;resizable=0;rotatable=0;perimeter=centerPerimeter;snapToPoint=1;strokeColor=#6c8ebf;container=1;" vertex="1" parent="106">
                    <mxGeometry x="110" y="10" width="20" height="20" as="geometry"/>
                </mxCell>
                <mxCell id="109" value="" style="edgeStyle=none;html=1;" edge="1" source="105" target="93" parent="1">
                    <mxGeometry relative="1" as="geometry">
                        <Array as="points">
                            <mxPoint x="120" y="580"/>
                            <mxPoint x="120" y="600"/>
                        </Array>
                    </mxGeometry>
                </mxCell>
                <mxCell id="110" value="" style="edgeStyle=none;html=1;" edge="1" source="108" target="94" parent="1">
                    <mxGeometry relative="1" as="geometry">
                        <Array as="points">
                            <mxPoint x="120" y="660"/>
                            <mxPoint x="120" y="640"/>
                        </Array>
                    </mxGeometry>
                </mxCell>
                <mxCell id="111" value="" style="edgeStyle=none;html=1;" edge="1" source="102" target="88" parent="1">
                    <mxGeometry relative="1" as="geometry">
                        <Array as="points">
                            <mxPoint x="120" y="500"/>
                            <mxPoint x="120" y="480"/>
                        </Array>
                    </mxGeometry>
                </mxCell>
                <mxCell id="112" value="" style="edgeStyle=none;html=1;" edge="1" source="99" target="87" parent="1">
                    <mxGeometry relative="1" as="geometry">
                        <Array as="points">
                            <mxPoint x="120" y="420"/>
                            <mxPoint x="120" y="440"/>
                        </Array>
                    </mxGeometry>
                </mxCell>
                <mxCell id="113" value="" style="group" vertex="1" connectable="0" parent="1">
                    <mxGeometry x="350" y="420" width="100" height="80" as="geometry"/>
                </mxCell>
                <mxCell id="114" value="&lt;font style=&quot;font-size: 20px;&quot;&gt;BN&lt;/font&gt;" style="whiteSpace=wrap;html=1;fillColor=#ffe6cc;strokeColor=#d79b00;" vertex="1" parent="113">
                    <mxGeometry x="10" width="80" height="80" as="geometry"/>
                </mxCell>
                <mxCell id="115" value="" style="shape=waypoint;sketch=0;size=6;pointerEvents=1;points=[];fillColor=#fff2cc;resizable=0;rotatable=0;perimeter=centerPerimeter;snapToPoint=1;strokeColor=#d6b656;" vertex="1" parent="113">
                    <mxGeometry y="10" width="20" height="20" as="geometry"/>
                </mxCell>
                <mxCell id="116" value="" style="shape=waypoint;sketch=0;size=6;pointerEvents=1;points=[];fillColor=#fff2cc;resizable=0;rotatable=0;perimeter=centerPerimeter;snapToPoint=1;strokeColor=#d6b656;" vertex="1" parent="113">
                    <mxGeometry y="50" width="20" height="20" as="geometry"/>
                </mxCell>
                <mxCell id="117" value="" style="shape=waypoint;sketch=0;size=6;pointerEvents=1;points=[];fillColor=#fff2cc;resizable=0;rotatable=0;perimeter=centerPerimeter;snapToPoint=1;strokeColor=#d6b656;" vertex="1" parent="113">
                    <mxGeometry x="80" y="50" width="20" height="20" as="geometry"/>
                </mxCell>
                <mxCell id="118" value="" style="shape=waypoint;sketch=0;size=6;pointerEvents=1;points=[];fillColor=#fff2cc;resizable=0;rotatable=0;perimeter=centerPerimeter;snapToPoint=1;strokeColor=#d6b656;" vertex="1" parent="113">
                    <mxGeometry x="80" y="10" width="20" height="20" as="geometry"/>
                </mxCell>
                <mxCell id="119" value="" style="group" vertex="1" connectable="0" parent="1">
                    <mxGeometry x="350" y="580" width="100" height="80" as="geometry"/>
                </mxCell>
                <mxCell id="120" value="&lt;font style=&quot;font-size: 20px;&quot;&gt;BN&lt;/font&gt;" style="whiteSpace=wrap;html=1;fillColor=#ffe6cc;strokeColor=#d79b00;" vertex="1" parent="119">
                    <mxGeometry x="10" width="80" height="80" as="geometry"/>
                </mxCell>
                <mxCell id="121" value="" style="shape=waypoint;sketch=0;size=6;pointerEvents=1;points=[];fillColor=#fff2cc;resizable=0;rotatable=0;perimeter=centerPerimeter;snapToPoint=1;strokeColor=#d6b656;" vertex="1" parent="119">
                    <mxGeometry y="10" width="20" height="20" as="geometry"/>
                </mxCell>
                <mxCell id="122" value="" style="shape=waypoint;sketch=0;size=6;pointerEvents=1;points=[];fillColor=#fff2cc;resizable=0;rotatable=0;perimeter=centerPerimeter;snapToPoint=1;strokeColor=#d6b656;" vertex="1" parent="119">
                    <mxGeometry y="50" width="20" height="20" as="geometry"/>
                </mxCell>
                <mxCell id="123" value="" style="shape=waypoint;sketch=0;size=6;pointerEvents=1;points=[];fillColor=#fff2cc;resizable=0;rotatable=0;perimeter=centerPerimeter;snapToPoint=1;strokeColor=#d6b656;" vertex="1" parent="119">
                    <mxGeometry x="80" y="50" width="20" height="20" as="geometry"/>
                </mxCell>
                <mxCell id="124" value="" style="shape=waypoint;sketch=0;size=6;pointerEvents=1;points=[];fillColor=#fff2cc;resizable=0;rotatable=0;perimeter=centerPerimeter;snapToPoint=1;strokeColor=#d6b656;" vertex="1" parent="119">
                    <mxGeometry x="80" y="10" width="20" height="20" as="geometry"/>
                </mxCell>
                <mxCell id="125" value="" style="edgeStyle=none;html=1;entryX=0.193;entryY=0.536;entryDx=0;entryDy=0;entryPerimeter=0;" edge="1" source="90" target="115" parent="1">
                    <mxGeometry relative="1" as="geometry"/>
                </mxCell>
                <mxCell id="126" value="" style="edgeStyle=none;html=1;entryX=0.364;entryY=0.307;entryDx=0;entryDy=0;entryPerimeter=0;" edge="1" source="89" target="121" parent="1">
                    <mxGeometry relative="1" as="geometry">
                        <Array as="points">
                            <mxPoint x="280" y="480"/>
                            <mxPoint x="320" y="600"/>
                        </Array>
                    </mxGeometry>
                </mxCell>
                <mxCell id="127" value="" style="edgeStyle=none;html=1;entryX=0.021;entryY=0.221;entryDx=0;entryDy=0;entryPerimeter=0;" edge="1" source="96" target="116" parent="1">
                    <mxGeometry relative="1" as="geometry">
                        <Array as="points">
                            <mxPoint x="280" y="600"/>
                            <mxPoint x="320" y="480"/>
                        </Array>
                    </mxGeometry>
                </mxCell>
                <mxCell id="128" value="" style="edgeStyle=none;html=1;" edge="1" source="95" target="122" parent="1">
                    <mxGeometry relative="1" as="geometry"/>
                </mxCell>
                <mxCell id="129" value="" style="group" vertex="1" connectable="0" parent="1">
                    <mxGeometry x="510" y="500" width="100" height="80" as="geometry"/>
                </mxCell>
                <mxCell id="130" value="&lt;font style=&quot;font-size: 20px;&quot;&gt;BN&lt;/font&gt;" style="whiteSpace=wrap;html=1;fillColor=#ffe6cc;strokeColor=#d79b00;" vertex="1" parent="129">
                    <mxGeometry x="10" width="80" height="80" as="geometry"/>
                </mxCell>
                <mxCell id="131" value="" style="shape=waypoint;sketch=0;size=6;pointerEvents=1;points=[];fillColor=#fff2cc;resizable=0;rotatable=0;perimeter=centerPerimeter;snapToPoint=1;strokeColor=#d6b656;" vertex="1" parent="129">
                    <mxGeometry y="10" width="20" height="20" as="geometry"/>
                </mxCell>
                <mxCell id="132" value="" style="shape=waypoint;sketch=0;size=6;pointerEvents=1;points=[];fillColor=#fff2cc;resizable=0;rotatable=0;perimeter=centerPerimeter;snapToPoint=1;strokeColor=#d6b656;" vertex="1" parent="129">
                    <mxGeometry y="50" width="20" height="20" as="geometry"/>
                </mxCell>
                <mxCell id="133" value="" style="shape=waypoint;sketch=0;size=6;pointerEvents=1;points=[];fillColor=#fff2cc;resizable=0;rotatable=0;perimeter=centerPerimeter;snapToPoint=1;strokeColor=#d6b656;" vertex="1" parent="129">
                    <mxGeometry x="80" y="50" width="20" height="20" as="geometry"/>
                </mxCell>
                <mxCell id="134" value="" style="shape=waypoint;sketch=0;size=6;pointerEvents=1;points=[];fillColor=#fff2cc;resizable=0;rotatable=0;perimeter=centerPerimeter;snapToPoint=1;strokeColor=#d6b656;" vertex="1" parent="129">
                    <mxGeometry x="80" y="10" width="20" height="20" as="geometry"/>
                </mxCell>
                <mxCell id="135" value="" style="edgeStyle=none;html=1;" edge="1" source="117" target="131" parent="1">
                    <mxGeometry relative="1" as="geometry">
                        <Array as="points">
                            <mxPoint x="480" y="480"/>
                            <mxPoint x="480" y="520"/>
                        </Array>
                    </mxGeometry>
                </mxCell>
                <mxCell id="136" value="" style="edgeStyle=none;html=1;" edge="1" source="124" target="132" parent="1">
                    <mxGeometry relative="1" as="geometry">
                        <Array as="points">
                            <mxPoint x="480" y="600"/>
                            <mxPoint x="480" y="560"/>
                        </Array>
                    </mxGeometry>
                </mxCell>
                <mxCell id="138" value="" style="group" vertex="1" connectable="0" parent="1">
                    <mxGeometry x="710" y="120" width="100" height="80" as="geometry"/>
                </mxCell>
                <mxCell id="139" value="&lt;font style=&quot;font-size: 20px;&quot;&gt;BN&lt;/font&gt;" style="whiteSpace=wrap;html=1;fillColor=#ffe6cc;strokeColor=#d79b00;" vertex="1" parent="138">
                    <mxGeometry x="10" width="80" height="80" as="geometry"/>
                </mxCell>
                <mxCell id="140" value="" style="shape=waypoint;sketch=0;size=6;pointerEvents=1;points=[];fillColor=#fff2cc;resizable=0;rotatable=0;perimeter=centerPerimeter;snapToPoint=1;strokeColor=#d6b656;" vertex="1" parent="138">
                    <mxGeometry y="10" width="20" height="20" as="geometry"/>
                </mxCell>
                <mxCell id="141" value="" style="shape=waypoint;sketch=0;size=6;pointerEvents=1;points=[];fillColor=#fff2cc;resizable=0;rotatable=0;perimeter=centerPerimeter;snapToPoint=1;strokeColor=#d6b656;" vertex="1" parent="138">
                    <mxGeometry y="50" width="20" height="20" as="geometry"/>
                </mxCell>
                <mxCell id="142" value="" style="shape=waypoint;sketch=0;size=6;pointerEvents=1;points=[];fillColor=#fff2cc;resizable=0;rotatable=0;perimeter=centerPerimeter;snapToPoint=1;strokeColor=#d6b656;" vertex="1" parent="138">
                    <mxGeometry x="80" y="50" width="20" height="20" as="geometry"/>
                </mxCell>
                <mxCell id="143" value="" style="shape=waypoint;sketch=0;size=6;pointerEvents=1;points=[];fillColor=#fff2cc;resizable=0;rotatable=0;perimeter=centerPerimeter;snapToPoint=1;strokeColor=#d6b656;" vertex="1" parent="138">
                    <mxGeometry x="80" y="10" width="20" height="20" as="geometry"/>
                </mxCell>
                <mxCell id="144" value="" style="group" vertex="1" connectable="0" parent="1">
                    <mxGeometry x="710" y="260" width="100" height="80" as="geometry"/>
                </mxCell>
                <mxCell id="145" value="&lt;font style=&quot;font-size: 20px;&quot;&gt;BN&lt;/font&gt;" style="whiteSpace=wrap;html=1;fillColor=#ffe6cc;strokeColor=#d79b00;" vertex="1" parent="144">
                    <mxGeometry x="10" width="80" height="80" as="geometry"/>
                </mxCell>
                <mxCell id="146" value="" style="shape=waypoint;sketch=0;size=6;pointerEvents=1;points=[];fillColor=#fff2cc;resizable=0;rotatable=0;perimeter=centerPerimeter;snapToPoint=1;strokeColor=#d6b656;" vertex="1" parent="144">
                    <mxGeometry y="10" width="20" height="20" as="geometry"/>
                </mxCell>
                <mxCell id="147" value="" style="shape=waypoint;sketch=0;size=6;pointerEvents=1;points=[];fillColor=#fff2cc;resizable=0;rotatable=0;perimeter=centerPerimeter;snapToPoint=1;strokeColor=#d6b656;" vertex="1" parent="144">
                    <mxGeometry y="50" width="20" height="20" as="geometry"/>
                </mxCell>
                <mxCell id="148" value="" style="shape=waypoint;sketch=0;size=6;pointerEvents=1;points=[];fillColor=#fff2cc;resizable=0;rotatable=0;perimeter=centerPerimeter;snapToPoint=1;strokeColor=#d6b656;" vertex="1" parent="144">
                    <mxGeometry x="80" y="50" width="20" height="20" as="geometry"/>
                </mxCell>
                <mxCell id="149" value="" style="shape=waypoint;sketch=0;size=6;pointerEvents=1;points=[];fillColor=#fff2cc;resizable=0;rotatable=0;perimeter=centerPerimeter;snapToPoint=1;strokeColor=#d6b656;" vertex="1" parent="144">
                    <mxGeometry x="80" y="10" width="20" height="20" as="geometry"/>
                </mxCell>
                <mxCell id="150" value="" style="group" vertex="1" connectable="0" parent="1">
                    <mxGeometry x="710" y="420" width="100" height="80" as="geometry"/>
                </mxCell>
                <mxCell id="151" value="&lt;font style=&quot;font-size: 20px;&quot;&gt;BN&lt;/font&gt;" style="whiteSpace=wrap;html=1;fillColor=#ffe6cc;strokeColor=#d79b00;" vertex="1" parent="150">
                    <mxGeometry x="10" width="80" height="80" as="geometry"/>
                </mxCell>
                <mxCell id="152" value="" style="shape=waypoint;sketch=0;size=6;pointerEvents=1;points=[];fillColor=#fff2cc;resizable=0;rotatable=0;perimeter=centerPerimeter;snapToPoint=1;strokeColor=#d6b656;" vertex="1" parent="150">
                    <mxGeometry y="10" width="20" height="20" as="geometry"/>
                </mxCell>
                <mxCell id="153" value="" style="shape=waypoint;sketch=0;size=6;pointerEvents=1;points=[];fillColor=#fff2cc;resizable=0;rotatable=0;perimeter=centerPerimeter;snapToPoint=1;strokeColor=#d6b656;" vertex="1" parent="150">
                    <mxGeometry y="50" width="20" height="20" as="geometry"/>
                </mxCell>
                <mxCell id="154" value="" style="shape=waypoint;sketch=0;size=6;pointerEvents=1;points=[];fillColor=#fff2cc;resizable=0;rotatable=0;perimeter=centerPerimeter;snapToPoint=1;strokeColor=#d6b656;" vertex="1" parent="150">
                    <mxGeometry x="80" y="50" width="20" height="20" as="geometry"/>
                </mxCell>
                <mxCell id="155" value="" style="shape=waypoint;sketch=0;size=6;pointerEvents=1;points=[];fillColor=#fff2cc;resizable=0;rotatable=0;perimeter=centerPerimeter;snapToPoint=1;strokeColor=#d6b656;" vertex="1" parent="150">
                    <mxGeometry x="80" y="10" width="20" height="20" as="geometry"/>
                </mxCell>
                <mxCell id="156" value="" style="group" vertex="1" connectable="0" parent="1">
                    <mxGeometry x="710" y="580" width="100" height="80" as="geometry"/>
                </mxCell>
                <mxCell id="157" value="&lt;font style=&quot;font-size: 20px;&quot;&gt;BN&lt;/font&gt;" style="whiteSpace=wrap;html=1;fillColor=#ffe6cc;strokeColor=#d79b00;" vertex="1" parent="156">
                    <mxGeometry x="10" width="80" height="80" as="geometry"/>
                </mxCell>
                <mxCell id="158" value="" style="shape=waypoint;sketch=0;size=6;pointerEvents=1;points=[];fillColor=#fff2cc;resizable=0;rotatable=0;perimeter=centerPerimeter;snapToPoint=1;strokeColor=#d6b656;" vertex="1" parent="156">
                    <mxGeometry y="10" width="20" height="20" as="geometry"/>
                </mxCell>
                <mxCell id="159" value="" style="shape=waypoint;sketch=0;size=6;pointerEvents=1;points=[];fillColor=#fff2cc;resizable=0;rotatable=0;perimeter=centerPerimeter;snapToPoint=1;strokeColor=#d6b656;" vertex="1" parent="156">
                    <mxGeometry y="50" width="20" height="20" as="geometry"/>
                </mxCell>
                <mxCell id="160" value="" style="shape=waypoint;sketch=0;size=6;pointerEvents=1;points=[];fillColor=#fff2cc;resizable=0;rotatable=0;perimeter=centerPerimeter;snapToPoint=1;strokeColor=#d6b656;" vertex="1" parent="156">
                    <mxGeometry x="80" y="50" width="20" height="20" as="geometry"/>
                </mxCell>
                <mxCell id="161" value="" style="shape=waypoint;sketch=0;size=6;pointerEvents=1;points=[];fillColor=#fff2cc;resizable=0;rotatable=0;perimeter=centerPerimeter;snapToPoint=1;strokeColor=#d6b656;" vertex="1" parent="156">
                    <mxGeometry x="80" y="10" width="20" height="20" as="geometry"/>
                </mxCell>
                <mxCell id="163" value="" style="edgeStyle=none;html=1;" edge="1" parent="1" source="123" target="159">
                    <mxGeometry relative="1" as="geometry"/>
                </mxCell>
                <mxCell id="164" value="" style="edgeStyle=none;html=1;entryX=0.107;entryY=0.536;entryDx=0;entryDy=0;entryPerimeter=0;" edge="1" parent="1" source="133" target="153">
                    <mxGeometry relative="1" as="geometry">
                        <Array as="points">
                            <mxPoint x="640" y="560"/>
                            <mxPoint x="690" y="480"/>
                        </Array>
                    </mxGeometry>
                </mxCell>
                <mxCell id="166" value="" style="edgeStyle=none;html=1;entryX=0.042;entryY=0.258;entryDx=0;entryDy=0;entryPerimeter=0;" edge="1" parent="1" source="71" target="158">
                    <mxGeometry relative="1" as="geometry">
                        <mxPoint x="540" y="320" as="targetPoint"/>
                        <Array as="points">
                            <mxPoint x="600" y="320"/>
                            <mxPoint x="680" y="600"/>
                        </Array>
                    </mxGeometry>
                </mxCell>
                <mxCell id="167" value="" style="edgeStyle=none;html=1;entryX=0.333;entryY=0.633;entryDx=0;entryDy=0;entryPerimeter=0;" edge="1" parent="1" source="134" target="147">
                    <mxGeometry relative="1" as="geometry">
                        <mxPoint x="700" y="350" as="targetPoint"/>
                        <Array as="points">
                            <mxPoint x="640" y="520"/>
                            <mxPoint x="680" y="320"/>
                        </Array>
                    </mxGeometry>
                </mxCell>
                <mxCell id="169" value="" style="edgeStyle=none;html=1;entryX=0.208;entryY=0.3;entryDx=0;entryDy=0;entryPerimeter=0;" edge="1" parent="1" source="118" target="141">
                    <mxGeometry relative="1" as="geometry">
                        <mxPoint x="540" y="440" as="targetPoint"/>
                        <Array as="points">
                            <mxPoint x="600" y="440"/>
                            <mxPoint x="680" y="180"/>
                        </Array>
                    </mxGeometry>
                </mxCell>
                <mxCell id="171" value="" style="edgeStyle=none;html=1;entryX=0.292;entryY=0.383;entryDx=0;entryDy=0;entryPerimeter=0;" edge="1" parent="1" source="66" target="140">
                    <mxGeometry relative="1" as="geometry">
                        <mxPoint x="540" y="120" as="targetPoint"/>
                        <Array as="points">
                            <mxPoint x="600" y="120"/>
                            <mxPoint x="600" y="140"/>
                        </Array>
                    </mxGeometry>
                </mxCell>
                <mxCell id="172" value="" style="edgeStyle=none;html=1;entryX=0.375;entryY=0.217;entryDx=0;entryDy=0;entryPerimeter=0;" edge="1" parent="1" source="82" target="146">
                    <mxGeometry relative="1" as="geometry">
                        <Array as="points">
                            <mxPoint x="640" y="200"/>
                            <mxPoint x="680" y="280"/>
                        </Array>
                    </mxGeometry>
                </mxCell>
                <mxCell id="173" value="" style="edgeStyle=none;html=1;entryX=0;entryY=0.383;entryDx=0;entryDy=0;entryPerimeter=0;" edge="1" parent="1" source="81" target="152">
                    <mxGeometry relative="1" as="geometry">
                        <Array as="points">
                            <mxPoint x="640" y="240"/>
                            <mxPoint x="680" y="440"/>
                        </Array>
                    </mxGeometry>
                </mxCell>
                <mxCell id="174" value="" style="group" vertex="1" connectable="0" parent="1">
                    <mxGeometry x="910" y="200" width="100" height="80" as="geometry"/>
                </mxCell>
                <mxCell id="175" value="&lt;font style=&quot;font-size: 20px;&quot;&gt;BN&lt;/font&gt;" style="whiteSpace=wrap;html=1;fillColor=#ffe6cc;strokeColor=#d79b00;" vertex="1" parent="174">
                    <mxGeometry x="10" width="80" height="80" as="geometry"/>
                </mxCell>
                <mxCell id="176" value="" style="shape=waypoint;sketch=0;size=6;pointerEvents=1;points=[];fillColor=#fff2cc;resizable=0;rotatable=0;perimeter=centerPerimeter;snapToPoint=1;strokeColor=#d6b656;" vertex="1" parent="174">
                    <mxGeometry y="10" width="20" height="20" as="geometry"/>
                </mxCell>
                <mxCell id="177" value="" style="shape=waypoint;sketch=0;size=6;pointerEvents=1;points=[];fillColor=#fff2cc;resizable=0;rotatable=0;perimeter=centerPerimeter;snapToPoint=1;strokeColor=#d6b656;" vertex="1" parent="174">
                    <mxGeometry y="50" width="20" height="20" as="geometry"/>
                </mxCell>
                <mxCell id="178" value="" style="shape=waypoint;sketch=0;size=6;pointerEvents=1;points=[];fillColor=#fff2cc;resizable=0;rotatable=0;perimeter=centerPerimeter;snapToPoint=1;strokeColor=#d6b656;" vertex="1" parent="174">
                    <mxGeometry x="80" y="50" width="20" height="20" as="geometry"/>
                </mxCell>
                <mxCell id="179" value="" style="shape=waypoint;sketch=0;size=6;pointerEvents=1;points=[];fillColor=#fff2cc;resizable=0;rotatable=0;perimeter=centerPerimeter;snapToPoint=1;strokeColor=#d6b656;" vertex="1" parent="174">
                    <mxGeometry x="80" y="10" width="20" height="20" as="geometry"/>
                </mxCell>
                <mxCell id="180" value="" style="group" vertex="1" connectable="0" parent="1">
                    <mxGeometry x="910" y="340" width="100" height="80" as="geometry"/>
                </mxCell>
                <mxCell id="181" value="&lt;font style=&quot;font-size: 20px;&quot;&gt;BN&lt;/font&gt;" style="whiteSpace=wrap;html=1;fillColor=#ffe6cc;strokeColor=#d79b00;" vertex="1" parent="180">
                    <mxGeometry x="10" width="80" height="80" as="geometry"/>
                </mxCell>
                <mxCell id="182" value="" style="shape=waypoint;sketch=0;size=6;pointerEvents=1;points=[];fillColor=#fff2cc;resizable=0;rotatable=0;perimeter=centerPerimeter;snapToPoint=1;strokeColor=#d6b656;" vertex="1" parent="180">
                    <mxGeometry y="10" width="20" height="20" as="geometry"/>
                </mxCell>
                <mxCell id="183" value="" style="shape=waypoint;sketch=0;size=6;pointerEvents=1;points=[];fillColor=#fff2cc;resizable=0;rotatable=0;perimeter=centerPerimeter;snapToPoint=1;strokeColor=#d6b656;" vertex="1" parent="180">
                    <mxGeometry y="50" width="20" height="20" as="geometry"/>
                </mxCell>
                <mxCell id="184" value="" style="shape=waypoint;sketch=0;size=6;pointerEvents=1;points=[];fillColor=#fff2cc;resizable=0;rotatable=0;perimeter=centerPerimeter;snapToPoint=1;strokeColor=#d6b656;" vertex="1" parent="180">
                    <mxGeometry x="80" y="50" width="20" height="20" as="geometry"/>
                </mxCell>
                <mxCell id="185" value="" style="shape=waypoint;sketch=0;size=6;pointerEvents=1;points=[];fillColor=#fff2cc;resizable=0;rotatable=0;perimeter=centerPerimeter;snapToPoint=1;strokeColor=#d6b656;" vertex="1" parent="180">
                    <mxGeometry x="80" y="10" width="20" height="20" as="geometry"/>
                </mxCell>
                <mxCell id="186" value="" style="group" vertex="1" connectable="0" parent="1">
                    <mxGeometry x="910" y="500" width="100" height="80" as="geometry"/>
                </mxCell>
                <mxCell id="187" value="&lt;font style=&quot;font-size: 20px;&quot;&gt;BN&lt;/font&gt;" style="whiteSpace=wrap;html=1;fillColor=#ffe6cc;strokeColor=#d79b00;" vertex="1" parent="186">
                    <mxGeometry x="10" width="80" height="80" as="geometry"/>
                </mxCell>
                <mxCell id="188" value="" style="shape=waypoint;sketch=0;size=6;pointerEvents=1;points=[];fillColor=#fff2cc;resizable=0;rotatable=0;perimeter=centerPerimeter;snapToPoint=1;strokeColor=#d6b656;" vertex="1" parent="186">
                    <mxGeometry y="10" width="20" height="20" as="geometry"/>
                </mxCell>
                <mxCell id="189" value="" style="shape=waypoint;sketch=0;size=6;pointerEvents=1;points=[];fillColor=#fff2cc;resizable=0;rotatable=0;perimeter=centerPerimeter;snapToPoint=1;strokeColor=#d6b656;" vertex="1" parent="186">
                    <mxGeometry y="50" width="20" height="20" as="geometry"/>
                </mxCell>
                <mxCell id="190" value="" style="shape=waypoint;sketch=0;size=6;pointerEvents=1;points=[];fillColor=#fff2cc;resizable=0;rotatable=0;perimeter=centerPerimeter;snapToPoint=1;strokeColor=#d6b656;" vertex="1" parent="186">
                    <mxGeometry x="80" y="50" width="20" height="20" as="geometry"/>
                </mxCell>
                <mxCell id="191" value="" style="shape=waypoint;sketch=0;size=6;pointerEvents=1;points=[];fillColor=#fff2cc;resizable=0;rotatable=0;perimeter=centerPerimeter;snapToPoint=1;strokeColor=#d6b656;" vertex="1" parent="186">
                    <mxGeometry x="80" y="10" width="20" height="20" as="geometry"/>
                </mxCell>
                <mxCell id="192" value="" style="edgeStyle=none;html=1;" edge="1" parent="1" source="142" target="176">
                    <mxGeometry relative="1" as="geometry">
                        <Array as="points">
                            <mxPoint x="840" y="180"/>
                            <mxPoint x="880" y="220"/>
                        </Array>
                    </mxGeometry>
                </mxCell>
                <mxCell id="193" value="" style="edgeStyle=none;html=1;" edge="1" parent="1" source="149" target="177">
                    <mxGeometry relative="1" as="geometry">
                        <Array as="points">
                            <mxPoint x="840" y="280"/>
                            <mxPoint x="880" y="260"/>
                        </Array>
                    </mxGeometry>
                </mxCell>
                <mxCell id="195" value="" style="edgeStyle=none;html=1;entryX=0.079;entryY=0.279;entryDx=0;entryDy=0;entryPerimeter=0;" edge="1" parent="1" source="148" target="182">
                    <mxGeometry relative="1" as="geometry">
                        <mxPoint x="900" y="320" as="targetPoint"/>
                        <Array as="points">
                            <mxPoint x="840" y="320"/>
                            <mxPoint x="880" y="360"/>
                        </Array>
                    </mxGeometry>
                </mxCell>
                <mxCell id="196" value="" style="edgeStyle=none;html=1;" edge="1" parent="1" source="155" target="183">
                    <mxGeometry relative="1" as="geometry">
                        <Array as="points">
                            <mxPoint x="840" y="440"/>
                            <mxPoint x="880" y="400"/>
                        </Array>
                    </mxGeometry>
                </mxCell>
                <mxCell id="197" value="" style="edgeStyle=none;html=1;" edge="1" parent="1" source="154" target="188">
                    <mxGeometry relative="1" as="geometry">
                        <Array as="points">
                            <mxPoint x="840" y="480"/>
                            <mxPoint x="880" y="520"/>
                        </Array>
                    </mxGeometry>
                </mxCell>
                <mxCell id="198" value="" style="edgeStyle=none;html=1;" edge="1" parent="1" source="161" target="189">
                    <mxGeometry relative="1" as="geometry">
                        <Array as="points">
                            <mxPoint x="840" y="600"/>
                            <mxPoint x="880" y="560"/>
                        </Array>
                    </mxGeometry>
                </mxCell>
                <mxCell id="199" value="" style="group" vertex="1" connectable="0" parent="1">
                    <mxGeometry x="1110" y="420" width="100" height="80" as="geometry"/>
                </mxCell>
                <mxCell id="200" value="&lt;font style=&quot;font-size: 20px;&quot;&gt;BN&lt;/font&gt;" style="whiteSpace=wrap;html=1;fillColor=#ffe6cc;strokeColor=#d79b00;" vertex="1" parent="199">
                    <mxGeometry x="10" width="80" height="80" as="geometry"/>
                </mxCell>
                <mxCell id="201" value="" style="shape=waypoint;sketch=0;size=6;pointerEvents=1;points=[];fillColor=#fff2cc;resizable=0;rotatable=0;perimeter=centerPerimeter;snapToPoint=1;strokeColor=#d6b656;" vertex="1" parent="199">
                    <mxGeometry y="10" width="20" height="20" as="geometry"/>
                </mxCell>
                <mxCell id="202" value="" style="shape=waypoint;sketch=0;size=6;pointerEvents=1;points=[];fillColor=#fff2cc;resizable=0;rotatable=0;perimeter=centerPerimeter;snapToPoint=1;strokeColor=#d6b656;" vertex="1" parent="199">
                    <mxGeometry y="50" width="20" height="20" as="geometry"/>
                </mxCell>
                <mxCell id="203" value="" style="shape=waypoint;sketch=0;size=6;pointerEvents=1;points=[];fillColor=#fff2cc;resizable=0;rotatable=0;perimeter=centerPerimeter;snapToPoint=1;strokeColor=#d6b656;" vertex="1" parent="199">
                    <mxGeometry x="80" y="50" width="20" height="20" as="geometry"/>
                </mxCell>
                <mxCell id="204" value="" style="shape=waypoint;sketch=0;size=6;pointerEvents=1;points=[];fillColor=#fff2cc;resizable=0;rotatable=0;perimeter=centerPerimeter;snapToPoint=1;strokeColor=#d6b656;" vertex="1" parent="199">
                    <mxGeometry x="80" y="10" width="20" height="20" as="geometry"/>
                </mxCell>
                <mxCell id="205" value="" style="group" vertex="1" connectable="0" parent="1">
                    <mxGeometry x="1110" y="270" width="100" height="80" as="geometry"/>
                </mxCell>
                <mxCell id="206" value="&lt;font style=&quot;font-size: 20px;&quot;&gt;BN&lt;/font&gt;" style="whiteSpace=wrap;html=1;fillColor=#ffe6cc;strokeColor=#d79b00;" vertex="1" parent="205">
                    <mxGeometry x="10" width="80" height="80" as="geometry"/>
                </mxCell>
                <mxCell id="207" value="" style="shape=waypoint;sketch=0;size=6;pointerEvents=1;points=[];fillColor=#fff2cc;resizable=0;rotatable=0;perimeter=centerPerimeter;snapToPoint=1;strokeColor=#d6b656;" vertex="1" parent="205">
                    <mxGeometry y="10" width="20" height="20" as="geometry"/>
                </mxCell>
                <mxCell id="208" value="" style="shape=waypoint;sketch=0;size=6;pointerEvents=1;points=[];fillColor=#fff2cc;resizable=0;rotatable=0;perimeter=centerPerimeter;snapToPoint=1;strokeColor=#d6b656;" vertex="1" parent="205">
                    <mxGeometry y="50" width="20" height="20" as="geometry"/>
                </mxCell>
                <mxCell id="209" value="" style="shape=waypoint;sketch=0;size=6;pointerEvents=1;points=[];fillColor=#fff2cc;resizable=0;rotatable=0;perimeter=centerPerimeter;snapToPoint=1;strokeColor=#d6b656;" vertex="1" parent="205">
                    <mxGeometry x="80" y="50" width="20" height="20" as="geometry"/>
                </mxCell>
                <mxCell id="210" value="" style="shape=waypoint;sketch=0;size=6;pointerEvents=1;points=[];fillColor=#fff2cc;resizable=0;rotatable=0;perimeter=centerPerimeter;snapToPoint=1;strokeColor=#d6b656;" vertex="1" parent="205">
                    <mxGeometry x="80" y="10" width="20" height="20" as="geometry"/>
                </mxCell>
                <mxCell id="211" value="" style="edgeStyle=none;html=1;" edge="1" parent="1" source="178" target="207">
                    <mxGeometry relative="1" as="geometry">
                        <Array as="points">
                            <mxPoint x="1040" y="260"/>
                            <mxPoint x="1080" y="290"/>
                        </Array>
                    </mxGeometry>
                </mxCell>
                <mxCell id="212" value="" style="edgeStyle=none;html=1;" edge="1" parent="1" source="185" target="208">
                    <mxGeometry relative="1" as="geometry">
                        <Array as="points">
                            <mxPoint x="1040" y="360"/>
                            <mxPoint x="1080" y="330"/>
                        </Array>
                    </mxGeometry>
                </mxCell>
                <mxCell id="213" value="" style="edgeStyle=none;html=1;" edge="1" parent="1" source="184" target="201">
                    <mxGeometry relative="1" as="geometry">
                        <Array as="points">
                            <mxPoint x="1040" y="400"/>
                            <mxPoint x="1080" y="440"/>
                        </Array>
                    </mxGeometry>
                </mxCell>
                <mxCell id="215" value="" style="edgeStyle=none;html=1;" edge="1" parent="1" source="191" target="202">
                    <mxGeometry relative="1" as="geometry">
                        <Array as="points">
                            <mxPoint x="1040" y="520"/>
                            <mxPoint x="1080" y="480"/>
                        </Array>
                    </mxGeometry>
                </mxCell>
                <mxCell id="220" value="" style="group" vertex="1" connectable="0" parent="1">
                    <mxGeometry x="1275" y="80" width="130" height="40" as="geometry"/>
                </mxCell>
                <mxCell id="218" value="&lt;span style=&quot;font-size: 20px;&quot;&gt;Y_0&lt;/span&gt;" style="whiteSpace=wrap;html=1;fillColor=#f8cecc;strokeColor=#b85450;" vertex="1" parent="220">
                    <mxGeometry x="10" width="120" height="40" as="geometry"/>
                </mxCell>
                <mxCell id="219" value="" style="shape=waypoint;sketch=0;size=6;pointerEvents=1;points=[];fillColor=#f8cecc;resizable=0;rotatable=0;perimeter=centerPerimeter;snapToPoint=1;strokeColor=#b85450;container=0;" vertex="1" parent="220">
                    <mxGeometry y="10" width="20" height="20" as="geometry"/>
                </mxCell>
                <mxCell id="221" value="" style="group" vertex="1" connectable="0" parent="1">
                    <mxGeometry x="1275" y="160" width="130" height="40" as="geometry"/>
                </mxCell>
                <mxCell id="222" value="&lt;span style=&quot;font-size: 20px;&quot;&gt;Y_1&lt;/span&gt;" style="whiteSpace=wrap;html=1;fillColor=#f8cecc;strokeColor=#b85450;" vertex="1" parent="221">
                    <mxGeometry x="10" width="120" height="40" as="geometry"/>
                </mxCell>
                <mxCell id="223" value="" style="shape=waypoint;sketch=0;size=6;pointerEvents=1;points=[];fillColor=#f8cecc;resizable=0;rotatable=0;perimeter=centerPerimeter;snapToPoint=1;strokeColor=#b85450;container=0;" vertex="1" parent="221">
                    <mxGeometry y="10" width="20" height="20" as="geometry"/>
                </mxCell>
                <mxCell id="225" value="" style="edgeStyle=none;html=1;entryX=0;entryY=0.633;entryDx=0;entryDy=0;entryPerimeter=0;" edge="1" parent="1" source="143" target="219">
                    <mxGeometry relative="1" as="geometry">
                        <mxPoint x="900" y="140" as="targetPoint"/>
                        <Array as="points">
                            <mxPoint x="1240" y="140"/>
                            <mxPoint x="1240" y="100"/>
                        </Array>
                    </mxGeometry>
                </mxCell>
                <mxCell id="227" value="" style="edgeStyle=none;html=1;entryX=0.114;entryY=0.707;entryDx=0;entryDy=0;entryPerimeter=0;" edge="1" parent="1" source="179" target="223">
                    <mxGeometry relative="1" as="geometry">
                        <mxPoint x="1100" y="220" as="targetPoint"/>
                        <Array as="points">
                            <mxPoint x="1240" y="220"/>
                            <mxPoint x="1240" y="180"/>
                        </Array>
                    </mxGeometry>
                </mxCell>
                <mxCell id="228" value="" style="group" vertex="1" connectable="0" parent="1">
                    <mxGeometry x="1275" y="240" width="130" height="40" as="geometry"/>
                </mxCell>
                <mxCell id="229" value="&lt;span style=&quot;font-size: 20px;&quot;&gt;Y_2&lt;/span&gt;" style="whiteSpace=wrap;html=1;fillColor=#f8cecc;strokeColor=#b85450;" vertex="1" parent="228">
                    <mxGeometry x="10" width="120" height="40" as="geometry"/>
                </mxCell>
                <mxCell id="230" value="" style="shape=waypoint;sketch=0;size=6;pointerEvents=1;points=[];fillColor=#f8cecc;resizable=0;rotatable=0;perimeter=centerPerimeter;snapToPoint=1;strokeColor=#b85450;container=0;" vertex="1" parent="228">
                    <mxGeometry y="10" width="20" height="20" as="geometry"/>
                </mxCell>
                <mxCell id="231" value="" style="edgeStyle=none;html=1;" edge="1" parent="1" source="210" target="230">
                    <mxGeometry relative="1" as="geometry">
                        <Array as="points">
                            <mxPoint x="1240" y="290"/>
                            <mxPoint x="1240" y="260"/>
                        </Array>
                    </mxGeometry>
                </mxCell>
                <mxCell id="232" value="" style="group" vertex="1" connectable="0" parent="1">
                    <mxGeometry x="1275" y="320" width="130" height="40" as="geometry"/>
                </mxCell>
                <mxCell id="233" value="&lt;span style=&quot;font-size: 20px;&quot;&gt;Y_3&lt;/span&gt;" style="whiteSpace=wrap;html=1;fillColor=#f8cecc;strokeColor=#b85450;" vertex="1" parent="232">
                    <mxGeometry x="10" width="120" height="40" as="geometry"/>
                </mxCell>
                <mxCell id="234" value="" style="shape=waypoint;sketch=0;size=6;pointerEvents=1;points=[];fillColor=#f8cecc;resizable=0;rotatable=0;perimeter=centerPerimeter;snapToPoint=1;strokeColor=#b85450;container=0;" vertex="1" parent="232">
                    <mxGeometry y="10" width="20" height="20" as="geometry"/>
                </mxCell>
                <mxCell id="235" value="" style="edgeStyle=none;html=1;" edge="1" parent="1" source="209" target="234">
                    <mxGeometry relative="1" as="geometry">
                        <Array as="points">
                            <mxPoint x="1240" y="330"/>
                            <mxPoint x="1240" y="340"/>
                        </Array>
                    </mxGeometry>
                </mxCell>
                <mxCell id="236" value="" style="group" vertex="1" connectable="0" parent="1">
                    <mxGeometry x="1275" y="400" width="130" height="40" as="geometry"/>
                </mxCell>
                <mxCell id="237" value="&lt;span style=&quot;font-size: 20px;&quot;&gt;Y_4&lt;/span&gt;" style="whiteSpace=wrap;html=1;fillColor=#f8cecc;strokeColor=#b85450;" vertex="1" parent="236">
                    <mxGeometry x="10" width="120" height="40" as="geometry"/>
                </mxCell>
                <mxCell id="238" value="" style="shape=waypoint;sketch=0;size=6;pointerEvents=1;points=[];fillColor=#f8cecc;resizable=0;rotatable=0;perimeter=centerPerimeter;snapToPoint=1;strokeColor=#b85450;container=0;" vertex="1" parent="236">
                    <mxGeometry y="10" width="20" height="20" as="geometry"/>
                </mxCell>
                <mxCell id="239" value="" style="edgeStyle=none;html=1;" edge="1" parent="1" source="204" target="238">
                    <mxGeometry relative="1" as="geometry">
                        <Array as="points">
                            <mxPoint x="1240" y="440"/>
                            <mxPoint x="1240" y="420"/>
                        </Array>
                    </mxGeometry>
                </mxCell>
                <mxCell id="240" value="" style="group" vertex="1" connectable="0" parent="1">
                    <mxGeometry x="1275" y="480" width="130" height="40" as="geometry"/>
                </mxCell>
                <mxCell id="241" value="&lt;span style=&quot;font-size: 20px;&quot;&gt;Y_5&lt;/span&gt;" style="whiteSpace=wrap;html=1;fillColor=#f8cecc;strokeColor=#b85450;" vertex="1" parent="240">
                    <mxGeometry x="10" width="120" height="40" as="geometry"/>
                </mxCell>
                <mxCell id="242" value="" style="shape=waypoint;sketch=0;size=6;pointerEvents=1;points=[];fillColor=#f8cecc;resizable=0;rotatable=0;perimeter=centerPerimeter;snapToPoint=1;strokeColor=#b85450;container=0;" vertex="1" parent="240">
                    <mxGeometry y="10" width="20" height="20" as="geometry"/>
                </mxCell>
                <mxCell id="243" value="" style="edgeStyle=none;html=1;" edge="1" parent="1" source="203" target="242">
                    <mxGeometry relative="1" as="geometry">
                        <Array as="points">
                            <mxPoint x="1240" y="480"/>
                            <mxPoint x="1240" y="500"/>
                        </Array>
                    </mxGeometry>
                </mxCell>
                <mxCell id="244" value="" style="group" vertex="1" connectable="0" parent="1">
                    <mxGeometry x="1275" y="560" width="130" height="40" as="geometry"/>
                </mxCell>
                <mxCell id="245" value="&lt;span style=&quot;font-size: 20px;&quot;&gt;Y_6&lt;/span&gt;" style="whiteSpace=wrap;html=1;fillColor=#f8cecc;strokeColor=#b85450;" vertex="1" parent="244">
                    <mxGeometry x="10" width="120" height="40" as="geometry"/>
                </mxCell>
                <mxCell id="246" value="" style="shape=waypoint;sketch=0;size=6;pointerEvents=1;points=[];fillColor=#f8cecc;resizable=0;rotatable=0;perimeter=centerPerimeter;snapToPoint=1;strokeColor=#b85450;container=0;" vertex="1" parent="244">
                    <mxGeometry y="10" width="20" height="20" as="geometry"/>
                </mxCell>
                <mxCell id="248" value="" style="edgeStyle=none;html=1;entryX=0.017;entryY=0.55;entryDx=0;entryDy=0;entryPerimeter=0;" edge="1" parent="1" source="190" target="246">
                    <mxGeometry relative="1" as="geometry">
                        <mxPoint x="1100" y="560" as="targetPoint"/>
                        <Array as="points">
                            <mxPoint x="1240" y="560"/>
                            <mxPoint x="1240" y="580"/>
                        </Array>
                    </mxGeometry>
                </mxCell>
                <mxCell id="249" value="" style="group" vertex="1" connectable="0" parent="1">
                    <mxGeometry x="1275" y="640" width="130" height="40" as="geometry"/>
                </mxCell>
                <mxCell id="250" value="&lt;span style=&quot;font-size: 20px;&quot;&gt;Y_7&lt;/span&gt;" style="whiteSpace=wrap;html=1;fillColor=#f8cecc;strokeColor=#b85450;" vertex="1" parent="249">
                    <mxGeometry x="10" width="120" height="40" as="geometry"/>
                </mxCell>
                <mxCell id="251" value="" style="shape=waypoint;sketch=0;size=6;pointerEvents=1;points=[];fillColor=#f8cecc;resizable=0;rotatable=0;perimeter=centerPerimeter;snapToPoint=1;strokeColor=#b85450;container=0;" vertex="1" parent="249">
                    <mxGeometry y="10" width="20" height="20" as="geometry"/>
                </mxCell>
                <mxCell id="253" value="" style="edgeStyle=none;html=1;entryX=0.15;entryY=0.717;entryDx=0;entryDy=0;entryPerimeter=0;" edge="1" parent="1" source="160" target="251">
                    <mxGeometry relative="1" as="geometry">
                        <mxPoint x="900" y="640" as="targetPoint"/>
                        <Array as="points">
                            <mxPoint x="1240" y="640"/>
                            <mxPoint x="1240" y="660"/>
                        </Array>
                    </mxGeometry>
                </mxCell>
                <mxCell id="255" value="Sort Block for n=8" style="whiteSpace=wrap;html=1;fillColor=#e1d5e7;strokeColor=#9673a6;" vertex="1" parent="1">
                    <mxGeometry x="916" y="50" width="120" height="40" as="geometry"/>
                </mxCell>
                <mxCell id="257" value="Sort Block for n=4" style="whiteSpace=wrap;html=1;fillColor=#e1d5e7;strokeColor=#9673a6;" vertex="1" parent="1">
                    <mxGeometry x="320" y="50" width="120" height="40" as="geometry"/>
                </mxCell>
            </root>
        </mxGraphModel>
    </diagram>
</mxfile>